<?xml version="1.0" standalone="no"?><!DOCTYPE svg PUBLIC "-//W3C//DTD SVG 1.1//EN" "http://www.w3.org/Graphics/SVG/1.1/DTD/svg11.dtd"><svg class="icon" height="512" viewBox="0 0 1024 1024" version="1.1" xmlns="http://www.w3.org/2000/svg"><path d="M272.896 198.144c-36.864 0-66.56-29.184-66.56-65.024V65.024c0-35.84 29.696-65.024 66.56-65.024 37.376 0 67.072 29.184 67.072 65.024V133.12c0 35.84-29.696 65.024-67.072 65.024z m408.064 0c-36.864 0-67.072-29.184-67.072-65.024V65.024c0-35.84 30.208-65.024 67.072-65.024 36.864 0 66.56 29.184 66.56 65.024V133.12c0 35.84-29.696 65.024-66.56 65.024z m-185.344 757.76H104.448c-37.376 0-68.096-29.696-68.096-66.048V164.864c0-36.352 30.72-65.536 68.096-65.536h68.096v32.768c0 54.272 45.056 98.816 101.888 98.816 56.32 0 101.888-44.544 101.888-98.816v-32.768h203.776v32.768c0 54.272 45.056 98.816 101.888 98.816 56.32 0 101.888-44.544 101.888-98.816v-32.768h67.584c37.376 0 68.096 29.184 68.096 65.536v365.056c-20.992-14.336-44.032-25.6-68.096-34.304V329.216H104.448v560.64h357.888c8.704 23.552 19.968 45.568 33.28 66.048z m186.368-470.528V395.264h101.888v84.48c-11.264-1.024-22.528-2.048-34.304-2.048-23.04 0-45.568 2.56-67.584 7.68zM512 591.872v-32.256h30.208c-10.752 10.24-20.992 20.992-30.208 32.256z m101.888-97.28H512V395.264h101.888v99.328z m-169.984 329.216H342.016v-98.816h101.888v98.816z m0-164.864H342.016v-99.328h101.888v99.328z m0-164.352H342.016V395.264h101.888v99.328z m-169.472 329.216H172.544v-98.816h101.888v98.816z m0-164.864H172.544v-99.328h101.888v99.328z m0-164.352H172.544V395.264h101.888v99.328zM749.568 1024c-131.072 0-237.568-107.008-237.568-239.104s106.496-239.104 237.568-239.104c131.072 0 237.568 107.008 237.568 239.104S880.64 1024 749.568 1024z m0-68.096c93.696 0 169.984-76.8 169.984-170.496 0-94.208-76.288-170.496-169.984-170.496s-169.984 76.8-169.984 170.496c0.512 93.696 76.288 170.496 169.984 170.496z m90.624-100.864c9.728 4.608 14.848 15.36 9.216 23.552-5.632 8.192-15.872 11.264-25.6 6.144l-83.456-43.52c-2.56-1.536-7.168-3.584-9.216-5.632-6.144-3.072-15.36-8.192-15.36-14.848v-121.344c0-9.728 9.216-17.408 19.968-17.408s19.968 7.68 19.968 17.408v113.664l84.48 41.984z" /></svg>